#!OML:ASF F:\VICON\USERDATA\INSTALL\rory3\rory3.ASF
:FULLY-SPECIFIED
:DEGREES
606
root -0.277098 16.6369 2.23603 -174.321 -156.603 174.157
lowerback 11.624 -0.181492 -5.1989
upperback 1.81969 -1.02731 -2.28216
thorax -4.56415 -0.450325 0.699148
lowerneck -6.78015 -1.77741 -11.7706
upperneck 4.17199 -2.02127 12.2586
head 2.59067 -0.798047 5.59343
rclavicle 5.36719e-014 1.27222e-014
rhumerus -24.714 1.71636 -41.8939
rradius 136.085
rwrist -7.28881
rhand -15.2159 11.3765
rfingers 7.12502
rthumb 10.9565 -18.3176
lclavicle 5.36719e-014 1.27222e-014
lhumerus 1.81916 -18.3305 77.5872
lradius 136.722
lwrist 16.6842
lhand -23.6792 17.2118
lfingers 7.12502
lthumb 2.7872 47.1734
rfemur 8.58376 14.2794 26.1176
rtibia 47.1903
rfoot 5.69166 15.672
rtoes -16.1507
lfemur -58.4126 -1.73373 1.0432
ltibia 58.4244
lfoot 21.0764 -14.0314
ltoes -6.57064
607
root -0.356434 16.5954 2.25767 -173.888 -158.869 174.264
lowerback 11.676 0.0883181 -5.09929
upperback 1.98587 -0.679789 -2.77633
thorax -4.44318 -0.289105 0.0736329
lowerneck -5.87085 -2.45356 -12.7791
upperneck 3.67077 -2.99842 13.7505
head 2.45445 -1.28695 6.1955
rclavicle 5.1684e-014 1.59028e-015
rhumerus -21.132 0.0833589 -38.7473
rradius 134.18
rwrist -8.03779
rhand -15.6563 10.5719
rfingers 7.12502
rthumb 10.5317 -19.1443
lclavicle 5.1684e-014 1.59028e-015
lhumerus 3.43715 -18.4163 76.0595
lradius 136.621
lwrist 16.4684
lhand -23.9661 17.1101
lfingers 7.12502
lthumb 2.51006 47.075
rfemur 7.93677 12.6184 26.4627
rtibia 48.1906
rfoot 1.44727 12.9472
rtoes -17.0835
lfemur -60.3324 -0.893283 -0.474601
ltibia 59.7126
lfoot 17.6841 -12.1369
ltoes -9.95066
608
root -0.427032 16.5439 2.28803 -173.532 -160.83 174.329
lowerback 11.7573 0.388733 -4.81721
upperback 2.08247 -0.270795 -3.21008
thorax -4.40611 -0.0962832 -0.600996
lowerneck -4.61354 -2.9854 -13.7147
upperneck 3.16807 -3.81696 14.9069
head 2.25286 -1.72586 6.6976
rclavicle 1.31198e-014 9.54166e-015
rhumerus -17.1884 -1.26972 -35.537
rradius 131.709
rwrist -8.54812
rhand -15.4921 9.54465
rfingers 7.12502
rthumb 10.6901 -20.1634
lclavicle 1.31198e-014 9.54166e-015
lhumerus 4.44103 -18.3428 74.8456
lradius 136.606
lwrist 15.9988
lhand -24.0932 16.7401
lfingers 7.12502
lthumb 2.38731 46.7065
rfemur 7.34658 10.9122 26.6721
rtibia 49.3619
rfoot -3.12436 9.42206
rtoes -17.9436
lfemur -62.0515 -0.117909 -1.98975
ltibia 61.0344
lfoot 14.639 -10.6793
ltoes -13.9552
609
root -0.493237 16.4893 2.3323 -173.431 -162.368 174.498
lowerback 11.8347 0.781765 -4.5894
upperback 2.27021 0.258925 -3.64099
thorax -4.26188 0.154922 -1.26106
lowerneck -3.47071 -3.41121 -14.2964
upperneck 2.8322 -4.5026 15.5659
head 2.09475 -2.10627 6.99218
rclavicle -5.725e-014 2.06736e-014
rhumerus -12.8712 -2.59612 -32.4626
rradius 128.475
rwrist -8.67142
rhand -14.5699 8.15964
rfingers 7.12502
rthumb 11.5795 -21.5005
lclavicle -5.725e-014 2.06736e-014
lhumerus 4.92667 -18.0592 73.8656
lradius 136.74
lwrist 15.6306
lhand -23.8041 16.3728
lfingers 7.12502
lthumb 2.66656 46.3359
rfemur 6.98127 9.36789 26.649
rtibia 50.6695
rfoot -5.89625 5.17538
rtoes -17.4219
lfemur -63.211 0.532186 -3.4917
ltibia 62.2877
lfoot 13.0842 -8.67492
ltoes -15.3552
610
root -0.556087 16.4346 2.38496 -173.427 -163.519 174.61
lowerback 11.661 1.14385 -4.11762
upperback 2.65627 0.803049 -4.16566
thorax -3.75362 0.407633 -2.14934
lowerneck -3.01736 -3.6533 -14.5804
upperneck 3.10095 -4.92575 16.0701
head 2.18211 -2.32749 7.19212
rclavicle 5.32743e-014 -4.45278e-014
rhumerus -8.00938 -4.03094 -30.0795
rradius 123.918
rwrist -7.8402
rhand -14.2222 8.23109
rfingers 7.12502
rthumb 11.9148 -21.4099
lclavicle 5.32743e-014 -4.45278e-014
lhumerus 5.59076 -17.4357 72.5198
lradius 136.885
lwrist 15.6084
lhand -23.3605 16.3019
lfingers 7.12502
lthumb 3.09492 46.2591
rfemur 6.46807 7.76643 26.5413
rtibia 52.1019
rfoot -8.76105 0.73515
rtoes -18.6287
lfemur -63.8193 1.09088 -4.67182
ltibia 63.3295
lfoot 12.7022 -5.69337
ltoes -11.3467
